<?xml version="1.0" encoding="UTF-8"?>
<svg id="Capa_1" data-name="Capa 1" xmlns="http://www.w3.org/2000/svg" viewBox="0 0 945.51 173.8">
  <defs>
    <style>
      .cls-1 {
        fill: #ec9c00;
        stroke-width: 0px;
      }
    </style>
  </defs>
  <path class="cls-1" d="m20.93,171.87H0V41.29c0-10.52,8.53-19.05,19.05-19.05h82.16c8.92,0,16.15,7.23,16.15,16.15h0c0,9.15-7.41,16.56-16.56,16.56h-58.48s0,95.54,0,95.54c0,11.82-9.58,21.4-21.4,21.4Zm18.41-84.01h52.86c8.94,0,16.19,7.25,16.19,16.19h0c0,9.12-7.4,16.52-16.52,16.52h-52.53s0-32.71,0-32.71Z"/>
  <path class="cls-1" d="m155.63,43.18c-7.41,0-13.4-2.06-17.96-6.2-4.56-4.13-6.84-9.26-6.84-15.39s2.28-11.26,6.84-15.39c4.56-4.13,10.54-6.2,17.96-6.2s13.39,1.96,17.96,5.88c4.56,3.92,6.84,8.95,6.84,15.07s-2.24,11.72-6.73,15.93c-4.49,4.21-10.51,6.31-18.06,6.31Zm-20.31,118.06v-75.75c0-16.28,13.2-29.48,29.48-29.48h11.13v85.87c0,16.56-13.43,29.99-29.99,29.99h0c-5.87,0-10.63-4.76-10.63-10.63Z"/>
  <path class="cls-1" d="m277.69,54.08c8.98,0,17.1,1.82,24.37,5.45,7.27,3.63,13,9.23,17.21,16.78,4.2,7.56,6.31,17.32,6.31,29.29v48.4c0,9.87-8,17.87-17.87,17.87h0c-12.56,0-22.75-10.18-22.75-22.75v-36.89c0-8.26-1.68-14.29-5.02-18.06-3.35-3.77-8.02-5.67-14-5.67-4.28,0-8.2.96-11.76,2.89-3.56,1.92-6.34,4.88-8.34,8.87-2,3.99-2.99,9.19-2.99,15.61v15.39c0,22.43-18.18,40.62-40.62,40.62h0v-91.1c0-13.68,11.09-24.76,24.76-24.76h0c7.69,0,13.93,6.24,13.93,13.93v18.99l-7.48-9.62c4.42-8.41,10.48-14.71,18.17-18.92,7.7-4.2,16.39-6.31,26.08-6.31Z"/>
  <path class="cls-1" d="m373.34,152.88l-29.31-71.23c-5.03-12.22,3.96-25.64,17.17-25.64h0c8.42,0,15.99,5.16,19.07,13l32.47,82.62c.23.59-.2,1.22-.83,1.22h-18.31c-.64,0-1.07-.65-.82-1.23l34.87-84.48c2.78-6.73,9.34-11.13,16.63-11.13h0c12.7,0,21.33,12.9,16.48,24.64l-29.68,71.82c-4.85,11.75-16.31,19.41-29.02,19.41h-.36c-12.43,0-23.63-7.5-28.35-18.99Z"/>
  <path class="cls-1" d="m538.92,173.8c-13.68,0-25.62-2.6-35.81-7.8-10.19-5.2-18.1-12.33-23.73-21.38-5.63-9.05-8.44-19.35-8.44-30.89s2.74-21.84,8.23-30.89c5.49-9.05,13.07-16.1,22.77-21.16,9.69-5.06,20.59-7.59,32.71-7.59,11.4,0,21.8,2.32,31.21,6.95,9.41,4.63,16.89,11.44,22.45,20.42,5.56,8.98,8.34,19.88,8.34,32.71,0,1.43-.07,3.07-.21,4.92v.06c-.23,2.86-2.61,5.07-5.49,5.07h-84.21c-1.35,0-2.44-1.09-2.44-2.44v-16.49c0-1.35,1.09-2.44,2.44-2.44h54.65c2.7,0,3.41,3.74.89,4.72l-3.25,1.26c.14-5.27-.82-9.83-2.89-13.68-2.07-3.85-4.92-6.84-8.55-8.98-3.63-2.14-7.88-3.21-12.72-3.21s-9.09,1.07-12.72,3.21-6.45,5.17-8.44,9.09c-2,3.92-2.99,8.52-2.99,13.79v6.2c0,5.7,1.17,10.62,3.53,14.75,2.35,4.13,5.74,7.3,10.15,9.51,4.42,2.21,9.69,3.31,15.82,3.31,5.7,0,10.58-.82,14.64-2.46.7-.28,1.41-.59,2.11-.93,6.68-3.21,14.68-1.76,19.82,3.59h0c6.92,7.19,5.07,19.13-3.82,23.66-1.66.85-3.39,1.62-5.17,2.33-8.12,3.21-17.74,4.81-28.86,4.81Z"/>
  <path class="cls-1" d="m615.45,141.65v-76.01c0-5.32,4.31-9.63,9.63-9.63h0c16.05,0,29.06,13.01,29.06,29.06v4.71s-5.77-9.62-5.77-9.62c3.42-8.69,8.98-15.21,16.67-19.56,7.7-4.35,17.03-6.52,28-6.52v31.57c0,2.59-2.19,4.6-4.77,4.46-.01,0-.03,0-.04,0-1.36-.07-2.82-.11-4.38-.11-8.27,0-14.96,2.24-20.09,6.73-5.13,4.49-7.7,11.79-7.7,21.91v42.84c0,5.74-4.65,10.39-10.39,10.39h0c-16.69,0-30.22-13.53-30.22-30.22Z"/>
  <path class="cls-1" d="m752.26,173.8c-9.83,0-19.42-1.14-28.75-3.42-2.39-.58-4.66-1.2-6.81-1.86-8.79-2.69-13.19-12.52-9.5-20.94l.5-1.14c2.79-6.36,10.05-9.52,16.56-7.1,2.5.93,5.14,1.76,7.91,2.5,7.27,1.92,14.39,2.89,21.38,2.89s11.58-.71,14.22-2.14c2.63-1.42,3.95-3.35,3.95-5.77,0-2.28-1.25-3.96-3.74-5.02-2.5-1.07-5.77-1.89-9.83-2.46-4.06-.57-8.52-1.21-13.36-1.92-4.85-.71-9.73-1.67-14.64-2.89-4.92-1.21-9.41-3.06-13.47-5.56-4.06-2.49-7.31-5.88-9.73-10.15-2.43-4.28-3.63-9.69-3.63-16.25,0-7.41,2.17-14,6.52-19.77,4.35-5.77,10.72-10.33,19.13-13.68,8.41-3.35,18.67-5.02,30.78-5.02,8.12,0,16.35.82,24.69,2.46,8.34,1.64,15.36,4.1,21.06,7.38l-3.6,8.15c-4.34,9.82-15.02,15.01-25.52,12.73-.06-.01-.11-.02-.17-.04-5.7-1.21-11.12-1.82-16.25-1.82-6.84,0-11.65.79-14.43,2.35-2.78,1.57-4.17,3.49-4.17,5.77s1.21,4.03,3.63,5.24c2.42,1.21,5.67,2.14,9.73,2.78,4.06.64,8.51,1.28,13.36,1.92,4.84.64,9.73,1.6,14.64,2.89,4.92,1.28,9.41,3.17,13.47,5.67,4.06,2.5,7.3,5.85,9.73,10.05,2.42,4.21,3.63,9.59,3.63,16.14,0,7.13-2.17,13.54-6.52,19.24-4.35,5.7-10.76,10.26-19.24,13.68-8.48,3.42-18.99,5.13-31.53,5.13Z"/>
  <path class="cls-1" d="m887.8,173.8c-13.68,0-25.62-2.6-35.81-7.8-10.19-5.2-18.1-12.33-23.73-21.38-5.63-9.05-8.44-19.35-8.44-30.89s2.74-21.84,8.23-30.89c5.48-9.05,13.07-16.1,22.77-21.16,9.69-5.06,20.59-7.59,32.71-7.59,11.4,0,21.8,2.32,31.21,6.95,9.41,4.63,16.89,11.44,22.45,20.42,5.56,8.98,8.34,19.88,8.34,32.71,0,1.43-.07,3.07-.21,4.92v.05c-.23,2.87-2.62,5.08-5.5,5.08h-86.64v-21.38h70.12l-15.39,5.99c.14-5.27-.82-9.83-2.89-13.68-2.07-3.85-4.92-6.84-8.55-8.98-3.63-2.14-7.88-3.21-12.72-3.21s-9.09,1.07-12.72,3.21-6.45,5.17-8.44,9.09c-2,3.92-2.99,8.52-2.99,13.79v6.2c0,5.7,1.17,10.62,3.53,14.75,2.35,4.13,5.74,7.3,10.15,9.51,4.42,2.21,9.69,3.31,15.82,3.31,5.7,0,10.58-.82,14.64-2.46,1.04-.42,2.08-.9,3.11-1.43,5.87-3.04,13.02-1.94,17.6,2.83l.46.48c7.43,7.72,5.21,20.53-4.47,25.13-1.23.58-2.48,1.13-3.78,1.64-8.12,3.21-17.74,4.81-28.86,4.81Z"/>
</svg>